<svg xmlns="http://www.w3.org/2000/svg" width="21.162" height="24" viewBox="0 0 21.162 24">
  <defs>
    <style>
      .cls-1 {
        fill: #e44d26;
      }

      .cls-2 {
        fill: #f16529;
      }

      .cls-3 {
        fill: #ebebeb;
      }

      .cls-4 {
        fill: #fff;
      }

      .cls-5 {
        fill: #dedede;
      }

      .cls-6 {
        fill: #c64321;
      }

      .cls-7 {
        fill: #cdcdcd;
      }
    </style>
  </defs>
  <g id="html" transform="translate(-1.419)">
    <path id="Path_1" data-name="Path 1" class="cls-1" d="M3.345,21.6,1.419,0H22.581L20.653,21.6,11.987,24Z"/>
    <path id="Path_2" data-name="Path 2" class="cls-2" d="M12,22.164l7-1.942L20.65,1.766H12Z"/>
    <path id="Path_3" data-name="Path 3" class="cls-3" d="M12,9.778H8.495L8.252,7.065H12V4.415H5.357l.063.711.651,7.3H12V9.778Zm0,6.88-.012,0-2.95-.8-.189-2.113H6.19l.371,4.16,5.427,1.507.012,0V16.658Z"/>
    <path id="Path_4" data-name="Path 4" class="cls-4" d="M11.991,9.778v2.649h3.263l-.308,3.436-2.955.8v2.756l5.431-1.5.04-.448.623-6.974.064-.712H11.991Zm0-5.363v2.65h6.4l.053-.6.121-1.343.063-.711Z"/>
    <path id="Path_5" data-name="Path 5" class="cls-5" d="M12,24l-.013,0H12Z"/>
    <path id="Path_6" data-name="Path 6" class="cls-6" d="M12,7.065H8.252l.242,2.713H12V7.065ZM12,0H1.419L3.345,21.6,11.987,24,12,24V19.414h0l-.012,0L6.561,17.911l-.371-4.16H8.849l.189,2.113,2.95.8h0l.009,0V12.427H6.071l-.651-7.3-.063-.712H12V0Z"/>
    <path id="Path_7" data-name="Path 7" class="cls-7" d="M8.849,13.751H6.19l.371,4.16,5.427,1.507.012,0h0l-.009,0V16.66h0l-2.95-.8-.189-2.113Zm3.142-9.336H5.357l.063.711.651,7.3h5.92V9.778h-3.5L8.252,7.065h3.739V4.415Z"/>
    <path id="Path_8" data-name="Path 8" class="cls-5" d="M12,16.658l-.009,0h0v2.756l.009,0V16.658Zm0-6.88h-.009v2.649H12V9.778Zm0-5.363h-.009v2.65H12V4.415Z"/>
  </g>
</svg>
