<svg xmlns="http://www.w3.org/2000/svg" width="23.999" height="24" viewBox="0 0 23.999 24">
  <defs>
    <style>
      .cls-1 {
        fill: #f2bb30;
      }

      .cls-2 {
        fill: #35668f;
      }

      .cls-3 {
        fill: #d3a32a;
      }

      .cls-4 {
        fill: #2e597c;
      }

      .cls-5 {
        fill: #fff;
      }

      .cls-6 {
        fill: #dedede;
      }
    </style>
  </defs>
  <g id="python" transform="translate(0 0)">
    <path id="Path_9" data-name="Path 9" class="cls-1" d="M20.7,17.748c1.666,0,2.282-1.162,2.86-2.9a9.792,9.792,0,0,0,0-5.818c-.413-1.655-1.194-2.9-2.86-2.9H18.551v2.54a3.675,3.675,0,0,1-3.579,3.633H9.252A2.919,2.919,0,0,0,6.392,15.2v5.454c0,1.553,1.35,2.464,2.86,2.908a9.635,9.635,0,0,0,5.721,0c1.441-.418,2.861-1.26,2.861-2.908V18.476H12.117v-.729H20.7Z"/>
    <path id="Path_10" data-name="Path 10" class="cls-2" d="M3.444,17.749H5.41V15.135a3.637,3.637,0,0,1,3.579-3.557H14.71a2.884,2.884,0,0,0,2.86-2.909V3.209A3.2,3.2,0,0,0,14.71.23,17.639,17.639,0,0,0,8.989.236h0C6.568.663,6.129,1.558,6.129,3.213v2.18h5.727v.73H3.98A3.574,3.574,0,0,0,.4,9.028a10.725,10.725,0,0,0,0,5.818c.406,1.692,1.377,2.9,3.042,2.9Z"/>
    <path id="Path_11" data-name="Path 11" class="cls-3" d="M12,12.3H9.252A2.919,2.919,0,0,0,6.392,15.2v5.454c0,1.553,1.35,2.464,2.86,2.908A10.034,10.034,0,0,0,12,24V12.3Z"/>
    <path id="Path_12" data-name="Path 12" class="cls-4" d="M11.827,0A16.481,16.481,0,0,0,8.988.236h0c-2.421.428-2.86,1.323-2.86,2.978v2.18h5.727v.73H3.98A3.574,3.574,0,0,0,.4,9.028a12.236,12.236,0,0,0-.4,2.85v.1a12.346,12.346,0,0,0,.4,2.867c.406,1.692,1.377,2.9,3.042,2.9H5.41V15.135a3.637,3.637,0,0,1,3.579-3.557H12V0Z"/>
    <path id="Path_13" data-name="Path 13" class="cls-5" d="M18.231,7.357h0v0Z"/>
    <path id="Path_14" data-name="Path 14" class="cls-5" d="M15.332,19.929a1.091,1.091,0,1,1-1.077,1.088A1.084,1.084,0,0,1,15.332,19.929ZM8.63,3.936A1.09,1.09,0,1,1,9.707,2.849,1.083,1.083,0,0,1,8.63,3.936Z"/>
    <path id="Path_15" data-name="Path 15" class="cls-6" d="M8.63,1.756a1.091,1.091,0,0,0,0,2.181h0V1.756Zm6.7,18.173a1.091,1.091,0,0,0,0,2.181h0V19.929Z"/>
  </g>
</svg>
